<svg id="Layer_1" data-name="Layer 1" xmlns="http://www.w3.org/2000/svg" viewBox="0 0 200 200"><defs><style>.cls-1{fill:#49b0c1;}</style></defs><g id="TNNxd5.tif"><path class="cls-1" d="M109.58,181.67a7.19,7.19,0,0,1-3.32-4.74c-1.32-4.59-2.83-9.12-4.17-13.7a2,2,0,0,0-2.31-1.68q-19.15.07-38.32,0A2.18,2.18,0,0,0,59.11,163a7.54,7.54,0,0,1-8.74,4,7.69,7.69,0,0,1,0-14.88,7.52,7.52,0,0,1,8.75,4,2.32,2.32,0,0,0,2.5,1.5c15-.05,30,0,45-.08,2,0,2.94.46,3.46,2.51,1,3.88,2.38,7.66,3.47,11.52a1.85,1.85,0,0,0,2.21,1.56q3.44-.1,6.87,0a1.88,1.88,0,0,0,2.2-1.6c1.23-4.25,2.64-8.45,3.91-12.69a4.72,4.72,0,0,1,3.69-3.51,56,56,0,0,0,16.24-6.75,4.79,4.79,0,0,1,5.11-.07c4,2.12,8,4.17,11.94,6.33a1.57,1.57,0,0,0,2.28-.35q2.47-2.67,5.15-5.15a1.66,1.66,0,0,0,.38-2.44c-2.1-3.83-4-7.75-6.14-11.57a5.28,5.28,0,0,1,.16-5.84,50.78,50.78,0,0,0,6.34-15.29,5.35,5.35,0,0,1,4.17-4.36c4.06-1.11,8-2.52,12.11-3.68a2,2,0,0,0,1.71-2.34q-.15-3.44,0-6.87c.06-1.3-.45-1.81-1.65-2.16-4.18-1.23-8.31-2.63-12.49-3.85A4.82,4.82,0,0,1,174,87.13a55.75,55.75,0,0,0-6.77-16.23,4.77,4.77,0,0,1,0-5.11c2.09-3.91,4.11-7.86,6.22-11.76.53-1,.68-1.6-.27-2.45-1.85-1.67-3.6-3.47-5.3-5.3a1.48,1.48,0,0,0-2.12-.29c-3.84,2.08-7.75,4-11.56,6.14a5.46,5.46,0,0,1-6.05-.1,50.09,50.09,0,0,0-15.28-6.33,5.41,5.41,0,0,1-4.35-4.19c-1.12-4-2.46-7.93-3.62-11.91-.39-1.31-.92-2-2.43-1.88a59.18,59.18,0,0,1-6.66,0,2,2,0,0,0-2.34,1.69c-1.09,3.86-2.41,7.66-3.46,11.53-.48,1.74-1.22,2.4-3.13,2.39-15.07-.09-30.13,0-45.2-.08A2.46,2.46,0,0,0,59,44.86a7.49,7.49,0,0,1-8.81,3.81,7.7,7.7,0,0,1,.11-14.83,7.54,7.54,0,0,1,8.77,3.94,2.32,2.32,0,0,0,2.51,1.5c12.71,0,25.41-.06,38.12,0a2.09,2.09,0,0,0,2.41-1.82c1.44-4.91,3-9.77,4.51-14.68a6,6,0,0,1,2.54-3.62h19.58A7.11,7.11,0,0,1,132,23.72c1.21,4.18,2.58,8.31,3.8,12.49a2.59,2.59,0,0,0,2,2,53.2,53.2,0,0,1,12,5,2.81,2.81,0,0,0,3.06,0c4.14-2.24,8.31-4.42,12.48-6.59,2.52-1.3,3.56-1.16,5.57.81,3.6,3.55,7.17,7.14,10.74,10.73,2.37,2.37,2.54,3.61.95,6.64-2.08,4-4.15,8-6.31,11.93a2.81,2.81,0,0,0,0,3.06,52.9,52.9,0,0,1,4.9,11.85,2.9,2.9,0,0,0,2.31,2.23c4.38,1.28,8.7,2.75,13.07,4a5.49,5.49,0,0,1,3.74,3V110a7.37,7.37,0,0,1-4.74,3.31c-4.12,1.18-8.19,2.54-12.3,3.75a2.6,2.6,0,0,0-2,2,53.32,53.32,0,0,1-5,12.06,2.77,2.77,0,0,0,0,3.06c2.21,4.07,4.36,8.18,6.5,12.3,1.32,2.55,1.11,3.93-.9,6q-5.36,5.4-10.74,10.74c-2.1,2.08-3.5,2.28-6.15.9-4.12-2.14-8.23-4.29-12.3-6.5a2.64,2.64,0,0,0-2.88,0,52.48,52.48,0,0,1-12,5,2.71,2.71,0,0,0-2.1,2.18c-1.3,4.37-2.76,8.7-4,13.08a6.82,6.82,0,0,1-2.56,3.82Z"/><path class="cls-1" d="M.42,98.33C2,95.18,4.09,92.79,7.93,92.78a7.17,7.17,0,0,1,6.9,4.16,2.35,2.35,0,0,0,2.53,1.49c19.84-.05,39.68,0,59.52-.07,1.59,0,2.17.36,2.16,2s-.56,2.06-2.15,2.06c-19.78,0-39.55,0-59.32-.06a2.62,2.62,0,0,0-2.85,1.66,7,7,0,0,1-6.79,4A7.45,7.45,0,0,1,1.2,103.9c-.26-.47-.21-1.11-.78-1.4Z"/><path class="cls-1" d="M119.38,63.91c5.06,0,10.13,0,15.2,0,1.36,0,1.78.41,1.76,1.78-.07,5.27,0,10.55-.06,15.83,0,1.36.39,1.79,1.76,1.78,5.28-.07,10.56,0,15.83-.06,1.35,0,1.8.37,1.79,1.75q-.06,15.42,0,30.83c0,1.5-.52,1.85-1.92,1.83-5.14-.07-10.28,0-15.41-.07-1.71,0-2.09.54-2.06,2.13.09,5.14,0,10.27.06,15.41,0,1.47-.45,1.87-1.88,1.86q-15.32-.07-30.62,0c-1.43,0-1.92-.39-1.9-1.86.08-5.21,0-10.42.06-15.62,0-1.44-.39-1.93-1.87-1.91-5.21.08-10.42,0-15.62.06-1.42,0-1.92-.37-1.91-1.85q.09-15.31,0-30.62c0-1.62.54-2,2-1.94,5.07.08,10.14,0,15.2.07,1.79,0,2.21-.56,2.17-2.25-.1-5,0-10-.07-15-.05-1.79.55-2.21,2.24-2.17C109.24,64,114.31,63.91,119.38,63.91Z"/><path class="cls-1" d="M71.06,73.75c-8.4,0-16.79,0-25.19,0a2.14,2.14,0,0,0-2.35,1.42,7.45,7.45,0,0,1-8.43,4.19A7.62,7.62,0,0,1,29,71.9,7.74,7.74,0,0,1,35,64.32a7.5,7.5,0,0,1,8.5,4.09c.65,1.38,1.49,1.51,2.74,1.51,16.52,0,33,0,49.55-.06,1.92,0,2.73.34,2.59,2.46-.1,1.52-.85,1.44-1.87,1.43Q83.76,73.73,71.06,73.75Z"/><path class="cls-1" d="M71,130.93c-8.32,0-16.65,0-25,0a2.34,2.34,0,0,0-2.52,1.53A7.51,7.51,0,0,1,35,136.5,7.7,7.7,0,0,1,29,128.93a7.62,7.62,0,0,1,6.08-7.44,7.41,7.41,0,0,1,8.33,4,2.46,2.46,0,0,0,2.66,1.62c16.66-.05,33.31,0,50,0,2.13,0,2.81,1,2.2,3.09-.32,1.13-1.22.73-1.88.73C87.89,130.94,79.43,130.93,71,130.93Z"/></g></svg>