<svg id="Layer_1" data-name="Layer 1" xmlns="http://www.w3.org/2000/svg" viewBox="0 0 200 200"><defs><style>.cls-1{fill:#49b0c1;}</style></defs><g id="_6HWKH3.tif" data-name="6HWKH3.tif"><path class="cls-1" d="M70.05.48c2,.43,4.07.76,6.07,1.31C90.13,5.59,99,16.65,100.31,32c.1,1.15.11,1.89,1.64,2,18.21,1,30.13,11.11,38,26.79,5,10.09,7.62,20.92,8.86,32.09,1,8.67,1.44,17.33,0,26-.38,2.21-1,4.39-1.38,6.6-.13.69-.78,1.47.21,2.16a2.11,2.11,0,0,0,2.24.07,39.11,39.11,0,0,1,16.36-2.11c16.18,1.25,30.5,14.12,33.32,30.13,3.73,21.19-9.65,40.39-30.79,44.19-1.17.21-2.44-.17-3.5.61h-4.83a4.43,4.43,0,0,0-1.1-.4,36.84,36.84,0,0,1-24.15-12c-.33-.35-.51-1.05-1.38-.78,0,2.22-.14,4.47,0,6.69.23,2.93-.7,5.1-3.37,6.45H129c-2.94-1-3.86-3.17-3.82-6.19.12-9.09.26-18.2,0-27.29-.4-13.63,3.87-25.1,14.81-33.94-4.06-2.28-8.4-3-12.68-3.87-2.83-.6-5.67-1.12-8.52-1.61-.81-.14-1.77-.46-2.22.75-2,5.25-6.38,7.24-11.36,8.18a24.68,24.68,0,0,1-12.86-.85c-3.62-1.26-6.65-3.3-8-7.11a1.34,1.34,0,0,0-1.77-1c-6.84,1.35-13.83,2.08-20.34,4.81a21.88,21.88,0,0,0-9,6.32,13,13,0,0,0-2.62,6.61c-.65,4.87-2.68,9.39-3.92,14.12-.4,1.56-.87,3.1-1.41,4.6a4.22,4.22,0,0,1-4.89,3,4.08,4.08,0,0,1-3.16-5.14c.58-2.57,1.5-5.07,2.22-7.62a118.67,118.67,0,0,0,3.21-12.57c.89-5.32,4.22-9.32,8.46-12.48,1.2-.91,1.59-1.6,1.13-3.14-2.62-8.84-2.81-17.91-2.28-27,.68-11.59,2.22-23,6.5-33.93.38-1,.09-1.43-.86-1.78a26.31,26.31,0,0,1-6.53-3.59,1.25,1.25,0,0,0-2,.14Q43.05,64,38.9,68c-.72.69-.63,1.11.05,1.7a20.77,20.77,0,0,1,2,2.06,4.15,4.15,0,0,1,0,5.88c-6.51,6.58-13,13.21-19.69,19.58-3.5,3.32-8,3.8-12.42,2.14A11.88,11.88,0,0,1,1,89.78c-.11-.63-.32-1.24-.48-1.86v-.48c.69-2.89,1.23-5.83,3.45-8.06,6.42-6.44,12.82-12.9,19.29-19.29A4.2,4.2,0,0,1,29.28,60a10.6,10.6,0,0,1,1.53,1.54c.87,1.11,1.51,1.24,2.58.08,2.34-2.55,4.8-5,7.34-7.34,1.13-1,1.05-1.74.24-2.94A32.43,32.43,0,0,1,59.84,1.65c1.92-.5,3.9-.78,5.86-1.17ZM58.42,105.27c0,2.42-.12,4.84,0,7.24s.55,4.79.93,7.16c.66,4.18.69,4.15,4.77,3,5.42-1.49,11-2.45,16.49-3.42,1-.17,2.18,0,2.88-.88s-.11-5.4-1-6.31C72.82,102,69.63,89.79,70.88,76.19c.42-4.49,3-5.68,7.11-3.75,6,2.8,11.55,2,16.69-2.06a28,28,0,0,0,5.92-6.95c1.75-2.66,4.54-3.08,6.76-.86,4.44,4.44,9.53,6.58,15.9,5.59,2.61-.41,4.24,1.08,4.71,3.73a48.17,48.17,0,0,1,.76,5.72c.71,11.46-1.71,22.13-9,31.2a10.88,10.88,0,0,0-2.72,8c.09,1.53.57,2,2,2.25,6.32,1.13,12.68,2.05,18.83,4,1,.31,1.54,0,1.72-1,.36-2,.8-3.93,1.05-5.92a99.52,99.52,0,0,0-1.07-28.83C137.86,77.47,135,68,129.48,59.44c-6.54-10.1-15.43-16.38-27.82-17-2-.11-2.88.49-3.61,2.43a32,32,0,0,1-30,20.75c-2.27,0-3.18.67-3.93,2.73C59.75,80.27,58.44,92.67,58.42,105.27Zm75.35,57.41a29,29,0,0,0,58,.41c0-16-12.93-29.26-28.71-29.29A29,29,0,0,0,133.77,162.68Zm-90-129.56a24,24,0,0,0,48,.42C91.93,20.18,81.44,9.26,68.38,9.15,54.57,9,43.91,19.44,43.81,33.12Zm76.53,48.63a21.51,21.51,0,0,1,0-2.41c.22-1.88-.33-2.6-2.44-2.63a19.36,19.36,0,0,1-10.82-3.62c-1.57-1.09-2.36-.94-3.66.49-6,6.64-13.38,10.14-22.58,8.57-1.43-.24-1.8.24-1.73,1.63a34.64,34.64,0,0,0,6.32,18.92c8.21,11.27,20.72,11.16,28.75-.26C118.55,96.25,120.26,89.23,120.34,81.75ZM13.2,91.79a5.37,5.37,0,0,0,3.62-1.85C20.39,86.35,24,82.8,27.55,79.19c1.45-1.49,4.12-2.85,4-4.52s-2.71-3-4-4.55c-1.08-1.3-1.71-.79-2.62.14C21,74.17,17.15,78,13.29,81.88,12.16,83,11,84.13,10,85.37a3.54,3.54,0,0,0-.37,4.07A4.27,4.27,0,0,0,13.2,91.79Zm95.49,25.87a24.62,24.62,0,0,1-16.48.62c0,2.19.07,4.18,0,6.17A2.61,2.61,0,0,0,94,127.22a15.8,15.8,0,0,0,12.83,0c1-.42,1.85-1,1.85-2.28C108.7,122.6,108.69,120.29,108.69,117.66Z"/><path class="cls-1" d="M21.32,172.56c0-2.17-.05-4.34,0-6.51.08-2.77,1.79-4.63,4.2-4.66s4.2,1.78,4.31,4.55c.09,2.57.07,5.15,0,7.72,0,1.26.42,1.7,1.67,1.66,2.17-.07,4.35-.07,6.52,0a4.13,4.13,0,1,1-.1,8.25q-6.16.09-12.31,0a4.08,4.08,0,0,1-4.28-4.25C21.24,177.07,21.33,174.82,21.32,172.56Z"/><path class="cls-1" d="M167,40.71c0,2.17.05,4.34,0,6.51-.09,2.91-1.86,4.86-4.28,4.85s-4.18-2-4.23-4.89a65.67,65.67,0,0,1,0-6.73c.17-2-.64-2.45-2.44-2.32a55.52,55.52,0,0,1-5.77,0,4.25,4.25,0,0,1-4.28-4,4.12,4.12,0,0,1,4-4.24q6.38-.18,12.76,0c2.53.06,4,1.7,4.18,4.36a3.93,3.93,0,0,1,0,.49Z"/><path class="cls-1" d="M150.26,162.91a4.05,4.05,0,0,1-4.19,4.26,4,4,0,0,1-4.07-4.35,4.13,4.13,0,1,1,8.26.09Z"/><path class="cls-1" d="M171,144.17a4.23,4.23,0,1,1-4.27,4.08A4.44,4.44,0,0,1,171,144.17Z"/><path class="cls-1" d="M154.46,181.52a4.24,4.24,0,1,1,.22-8.47,4.48,4.48,0,0,1,4.13,4.23A4.39,4.39,0,0,1,154.46,181.52Z"/><path class="cls-1" d="M183.56,162.69a4.16,4.16,0,1,1-8.32.07,4.15,4.15,0,0,1,4.23-4.25A4.28,4.28,0,0,1,183.56,162.69Z"/><path class="cls-1" d="M171.26,181.34a4.19,4.19,0,1,1,4.09-4.15A4.16,4.16,0,0,1,171.26,181.34Z"/><path class="cls-1" d="M158.52,148.47a4.08,4.08,0,0,1-4.07,4.16,4.24,4.24,0,0,1-4.19-4.32,4.13,4.13,0,0,1,8.26.16Z"/></g></svg>