<svg id="Layer_1" data-name="Layer 1" xmlns="http://www.w3.org/2000/svg" viewBox="0 0 200 200"><defs><style>.cls-1{fill:#49b0c1;}</style></defs><g id="_5L8KcZ.tif" data-name="5L8KcZ.tif"><path class="cls-1" d="M63.18,186.79c-4.06-1.11-8.15-2.15-12.18-3.36-12.26-3.69-24-8.4-34.29-16.3-6.64-5.14-12.07-11.28-14-19.71S.84,130.27,1.5,121.63A112.75,112.75,0,0,1,7,96c1.37-4.33,1.26-9.07,2.26-13.56C13.39,63.69,20.69,46.56,35,33.14A66.93,66.93,0,0,1,72,15.65c18-2.61,35.69-1.22,52.74,5.46A66.16,66.16,0,0,1,158.1,49.59a3.38,3.38,0,0,0,2.66,1.88c13.82,2.23,21.38,19.62,11.39,31.68a6.22,6.22,0,0,0-1.59,5.39,132.57,132.57,0,0,1,.64,27.31,78.63,78.63,0,0,1-11.26,35.65c-8.5,14-19.76,25.1-34.79,32.09a57.67,57.67,0,0,1-10.51,3.2h-2.92c-2.83-1.15-3.86-3.29-3.72-6.27s0-5.67,0-8.5c-.3,0-.46-.08-.57,0-.58.23-1.15.49-1.72.74a52.3,52.3,0,0,1-31.58,3.59c-1.56-.31-3.58-1.79-4.54-.75s-.35,3.18-.25,4.83c.16,2.81-.64,5-3.26,6.39Zm-30.6-78.62a4.75,4.75,0,0,0,.3,2.11,135.52,135.52,0,0,0,6.46,18.91c4.45,10.45,9.95,20.25,18.35,28.12,9.55,8.95,20.72,12.61,33.76,10.38,12.3-2.1,22.13-8.43,30.23-17.6,10.93-12.38,17.12-27,19.87-43.19a3.52,3.52,0,0,0-1.82-4.2,104.8,104.8,0,0,1-21.24-18.12c-1-1.18-1.7-1.1-2.88-.25a148.16,148.16,0,0,1-23.5,13.9c-15.17,7.17-31,11.51-47.91,11.11A88,88,0,0,1,32.58,108.17Zm5.73-65.29L40.16,42A132.87,132.87,0,0,1,66.9,32.78a4.89,4.89,0,0,1,2.25-.16,4.51,4.51,0,0,1,3.64,4.27c.08,2.41-1.32,4-4.13,4.73a131,131,0,0,0-41.5,18,5.81,5.81,0,0,0-2.23,2.62,104,104,0,0,0-8.16,28.34c-.23,1.54.28,1.88,1.76,1.84A60.24,60.24,0,0,0,39.6,87.8C53.55,82.25,65.76,74,77,64.11c2.36-2.07,5.09-2.17,6.89-.26s1.57,4.84-.84,7c-11.69,10.38-24.52,19-39,25-3,1.25-6.18,2.24-9.42,3.4,8.64,1.64,20.26,1.25,29.63-.82,17.5-3.87,33-11.94,47.45-22.28a2.06,2.06,0,0,0,1-2.21c-.73-8,1.63-14.85,8.43-19.47,6.44-4.38,13.53-4.61,20.43-1.2,2.31,1.15,3.84,1.49,6,0,1.26-.87,1.61-1.17.65-2.52a59.21,59.21,0,0,0-24.14-20A81.17,81.17,0,0,0,95,23.79c-9.83-.62-19.62-.33-29.21,2.37A56.22,56.22,0,0,0,38.31,42.88ZM10.46,130.15c0,2.36-.08,4.73,0,7.1.31,6.9,1.79,13.36,7,18.46a51.32,51.32,0,0,0,6.48,5.57c10.24,7.13,21.73,11.41,33.65,14.68,2.68.73,2.75.69,2.65-2.13,0-1.34.6-2.8-1.13-3.87a57.72,57.72,0,0,1-16-15.4c-10.17-13.94-16.12-29.73-20-46.37-.38-1.63-.88-2.73-2.73-3.07A17.29,17.29,0,0,1,16,103.55c-1.5-.74-2-.26-2.36,1.24A88.36,88.36,0,0,0,10.46,130.15ZM162,93.42l-10.3,7.77a2.15,2.15,0,0,0-.62,1.71,81.27,81.27,0,0,1-2.55,14.35c-4.56,17.17-12.41,32.57-25.95,44.33-4.26,3.7-6.19,7.23-5.48,12.65.36,2.79.08,2.88,2.65,1.82,11.69-4.81,20.62-13,28.17-22.92,11.76-15.41,15.53-33.11,14.65-52.08C162.42,98.58,162.62,96.05,162,93.42ZM149,68.14c0,1,0,2.24,0,3.42-.13,2.78-2.08,4.76-4.56,4.68a4.5,4.5,0,0,1-4.33-4.69c-.06-2,0-4,0-6,0-1.7-.46-3.24-2.07-4-4.89-2.48-11.91-1.89-15.09,4-2.54,4.71-1.94,8.56,2.22,13.31,5.38,6.11,11.87,10.91,18.4,15.68,1,.72,1.62.32,2.39-.23a114.2,114.2,0,0,0,11.79-9.33c3.15-2.91,6.5-5.6,8.79-9.41,3.05-5.1-.25-13.07-5.8-14.76a12.09,12.09,0,0,0-10.05,1C148.13,63.24,149.3,65.84,149,68.14Z"/><path class="cls-1" d="M200.42,35.8a6.37,6.37,0,0,1-6.36,3c-1.75-.12-4.14-.85-5.16.4-.87,1.07-.24,3.34-.28,5.08a10.9,10.9,0,0,1-.23,2.9,4.49,4.49,0,0,1-8.83-.79,55.69,55.69,0,0,1,0-6.06c.07-1.35-.44-1.66-1.68-1.6-1.87.09-3.76.06-5.64,0a4.37,4.37,0,0,1-4.47-4.07,4.21,4.21,0,0,1,3.85-4.83,43.53,43.53,0,0,1,6.26-.14c1.24,0,1.75-.29,1.68-1.62-.11-1.81-.06-3.63,0-5.44a4.53,4.53,0,1,1,9.05-.24c.12,1.94.09,3.9,0,5.85,0,1.09.35,1.5,1.44,1.44,1.39-.07,2.79.05,4.18,0,2.74-.15,4.92.67,6.2,3.25Z"/><path class="cls-1" d="M88.55,139.11c2.36,0,4.73,0,7.09,0a4.32,4.32,0,0,1,4.47,4.26A4.16,4.16,0,0,1,96,148q-7.61.22-15.22,0a4.37,4.37,0,0,1-4.13-4.63,4.51,4.51,0,0,1,4.58-4.22C83.67,139.08,86.11,139.11,88.55,139.11Z"/><path class="cls-1" d="M92.88,122c0,1,0,2,0,2.92a4.39,4.39,0,0,1-4.17,4.15,4.25,4.25,0,0,1-4.62-3.61,24.6,24.6,0,0,1,0-7.27,4.41,4.41,0,0,1,4.48-3.6,4.48,4.48,0,0,1,4.29,4.08C92.94,119.76,92.87,120.88,92.88,122Z"/><path class="cls-1" d="M93.28,30a93.4,93.4,0,0,1,21.78,3.37c2.83.81,4.32,3.22,3.6,5.66s-3.07,3.8-6,3a81.33,81.33,0,0,0-20.57-3c-3.31,0-5.42-1.83-5.45-4.52S88.84,30,92.23,30Z"/></g></svg>