<svg id="Layer_1" data-name="Layer 1" xmlns="http://www.w3.org/2000/svg" viewBox="0 0 200 200"><defs><style>.cls-1{fill:#49b0c1;}</style></defs><g id="VSROzt.tif"><path class="cls-1" d="M200.39,151.64c-1.37,3-3.7,4.23-7,4.07-3.57-.18-7.16-.09-10.74,0-3.2,0-5.61-1-6.49-4.32-.2-.78-.67-.79-1.32-.73a18,18,0,0,0-8.82,2.76,24.43,24.43,0,0,1-15.13,4.11c-5.4-.18-10.81,0-16.21,0-7.35,0-11.59-7.27-7.9-13.56a1.83,1.83,0,0,0-.05-2.22,8.39,8.39,0,0,1,0-9.2,1.79,1.79,0,0,0,0-2.22,8.38,8.38,0,0,1,.08-9.36,1.65,1.65,0,0,0,0-2.05c-3.68-6.3.53-13.53,7.88-13.57,3.77,0,7.54,0,11.52,0-1-3.35-2.39-6.44-3-9.75a18.57,18.57,0,0,1-.35-6.36c1.42-8.32,11.82-10,16.84-6.35a6.09,6.09,0,0,1,2.7,4.55c.45,6.86,4,12.21,8.24,17.23a28.36,28.36,0,0,0,5.77,5.3c1.38-2.48,3.53-3.3,6.24-3.23,3.57.1,7.16.16,10.73,0,3.32-.16,5.65,1,7,4.07Zm-24.51-21c0-4,0-8.05,0-12.08a2.16,2.16,0,0,0-1.14-2.2A39.1,39.1,0,0,1,163.54,106c-3.56-4.71-6.31-9.82-7.25-15.73-.41-2.6-1.17-3.27-3.79-2.88a3.5,3.5,0,0,0-3.38,4,16.65,16.65,0,0,0,.37,3.28c.89,4.14,2.69,8,4,12,1.1,3.34-.1,5-3.61,5-5,0-10,0-15,0-1.61,0-2.91.64-3.06,2.36s.85,2.58,2.56,2.8a3.14,3.14,0,0,1,3.11,3.14c.09,1.69-1.09,2.92-3.22,3.24a2.49,2.49,0,0,0-2.47,2.51,2.45,2.45,0,0,0,2.41,2.59c2,.2,3.16,1.15,3.28,3.15.1,1.72-1,2.72-3.24,3.15-1.46.28-2.46,1.09-2.45,2.58a2.4,2.4,0,0,0,2.43,2.53h.2c1.94.39,3.13,1.57,3.06,3.2a3.11,3.11,0,0,1-2.88,3.15c-.32.05-.65.1-1,.18a2.32,2.32,0,0,0-1.85,2.43,2.28,2.28,0,0,0,1.89,2.39,10.88,10.88,0,0,0,2.13.18c5.27,0,10.54,0,15.81,0a17.55,17.55,0,0,0,10.53-2.86,24.45,24.45,0,0,1,12.26-4c1.19-.09,1.53-.42,1.52-1.59C175.84,138.7,175.88,134.68,175.88,130.65Zm6.46.33c0,5.58,0,11.17,0,16.75,0,1.28.38,1.66,1.65,1.63,2.92-.09,5.85-.08,8.78,0,1.11,0,1.43-.32,1.42-1.43q0-16.74,0-33.49c0-1.1-.3-1.45-1.42-1.43-2.92.07-5.85.08-8.78,0-1.27,0-1.66.34-1.65,1.63C182.38,120.08,182.34,125.53,182.34,131Z"/><path class="cls-1" d="M.39,55a5.35,5.35,0,0,1,4.8-1.9c2.08.12,4.17-.09,6.24.06,1.63.12,2-.51,1.89-2-.11-2.46-.05-4.93,0-7.4a3.23,3.23,0,0,1,3.5-3.53c3.77,0,7.54-.06,11.31,0,2.2,0,3.44,1.34,3.48,3.58.05,2.6.08,5.2,0,7.79,0,1.23.4,1.55,1.56,1.51,2.4-.07,4.81,0,7.22,0,3,0,4.14,1.15,4.15,4.1,0,3.44,0,6.88,0,10.32,0,2.78-1.08,3.82-3.92,3.83-2.4,0-4.81.11-7.21,0-1.53-.09-1.87.47-1.81,1.88.11,2.46.06,4.92,0,7.39s-1.17,3.66-3.72,3.68q-5.47.06-10.93,0c-2.58,0-3.64-1.12-3.66-3.7s-.06-5.06,0-7.59c0-1.25-.3-1.71-1.62-1.65-2.4.1-4.81-.07-7.21.06a4.14,4.14,0,0,1-4.1-2ZM12,65.13c1.37,0,2.74,0,4.1,0,2.24.05,3.37,1.13,3.42,3.33.05,1.89,0,3.77,0,5.65,0,4,0,3.92,4,3.92,1.29,0,1.69-.37,1.65-1.64-.07-2.53-.06-5.06,0-7.59s1.18-3.65,3.73-3.67c1.75,0,3.51,0,5.27,0,4.17,0,4.12,0,4-4.13,0-1.12-.4-1.46-1.48-1.43-2.4,0-4.81,0-7.22,0-3.22,0-4.28-1.1-4.31-4.36,0-1.55,0-3.11,0-4.67,0-4,0-4-4.07-3.93-1.35,0-1.62.53-1.59,1.73.07,2.46,0,4.93,0,7.4s-1.15,3.75-3.8,3.82c-1.69,0-3.39,0-5.08,0-4.4,0-4.37,0-4.06,4.43,0,.83.27,1.16,1.12,1.13C9.17,65.09,10.6,65.12,12,65.13Z"/><path class="cls-1" d="M92.54,74.88c1.32.29,2.52.52,3.69.83a14.35,14.35,0,0,1,11.17,13c.82,7.45.34,14.92.22,22.38-.07,4.79-3.67,8-8.55,8-1.93,0-2.6.68-3.14,2.4A19.9,19.9,0,0,1,89.64,131a3.73,3.73,0,0,0-1.24,4.13,7.81,7.81,0,0,0,5.06,6c4.47,1.76,9,3.4,13.45,5.13a27.88,27.88,0,0,1,8.53,5,15.81,15.81,0,0,1,5.6,12c.12,5.2.07,10.39,0,15.59a5.09,5.09,0,0,1-4.83,5.34,18.17,18.17,0,0,1-1.95.08q-40.92,0-81.83,0a15.43,15.43,0,0,1-2.72-.2c-1.9-.34-3.81-2-3.88-3.89-.23-6.49-.58-13,.18-19.46.64-5.49,4.14-9.22,8.76-12s9.53-4.1,14.37-6c1.63-.62,3.28-1.24,4.86-2a7.34,7.34,0,0,0,4-4.35c.72-2.1.94-3.87-1.23-5.63a19.64,19.64,0,0,1-6.34-10.07c-.33-1.11-.82-1.57-2-1.5-5.29.31-9.7-3.36-9.45-9.58.25-6,.2-12,0-17.93C38.58,78.19,47.71,70.22,56.1,67a40.67,40.67,0,0,1,14.5-2.56c5.86,0,11.72,0,17.58,0,2.55,0,4.84.45,6.15,2.9s.44,4.63-1.22,6.61A9,9,0,0,0,92.54,74.88ZM32,169.79c0,2.15,0,4.29,0,6.43,0,1.1.15,1.63,1.46,1.6,4.16-.08,8.33-.06,12.49,0,1,0,1.38-.29,1.34-1.32-.08-1.62,0-3.25,0-4.87a3.12,3.12,0,1,1,6.23,0c0,1.63.06,3.25,0,4.87,0,1,.28,1.35,1.32,1.35q18.54,0,37.09,0c1.08,0,1.32-.45,1.3-1.4,0-1.62-.06-3.25,0-4.87a3,3,0,0,1,3.2-3.15,3.1,3.1,0,0,1,3.12,3.28c.06,1.49.08,3,0,4.48-.08,1.22.25,1.7,1.59,1.67,4-.08,7.94-.08,11.91,0,1.32,0,1.81-.31,1.77-1.72-.09-3.69-.1-7.4,0-11.1A11.54,11.54,0,0,0,108,153.69a40,40,0,0,0-3.71-1.7c-4.18-1.61-8.4-3.09-12.55-4.77-1.28-.53-1.89-.48-2.76.72a19.32,19.32,0,0,1-28.66,3c-1.47-1.33-2.21-4-4.05-4.08s-3.84,1.33-5.78,2.08c-4.11,1.58-8.36,2.83-12.24,5C34,156.3,31.82,159.8,32,164.73,32.07,166.41,32,168.11,32,169.79ZM55.7,107.92c0,1.76,0,3.51,0,5.26.1,9.73,6.27,16.56,15.93,17.64a17.16,17.16,0,0,0,19.06-14.49c.81-5.47.26-11,.27-16.53,0-2-1.46-3.2-3.69-3.12a14.48,14.48,0,0,1-9.11-2.85c-4.17-2.92-5.44-2.93-9.62,0a14.59,14.59,0,0,1-9.1,2.89c-2.55-.08-3.67,1.08-3.73,3.65S55.7,105.39,55.7,107.92Zm31.66-37c-6.51,0-12.61,0-18.7,0a24.72,24.72,0,0,0-6.75.88c-7.6,2.09-13.64,6-16,14.06-.89,3-.58,6.17-.61,9.28a1,1,0,0,0,.22.7c.61.57,4.69-.09,5.16-.83a9.26,9.26,0,0,1,8.46-4.63,9.88,9.88,0,0,0,6-1.91c6.14-4.21,10.12-4.22,16.26,0a10.2,10.2,0,0,0,6.18,1.94c3-.07,5.74.89,7.3,3.36C96.28,95.91,98,96,100.11,96c1,0,1.43-.25,1.34-1.29-.14-1.81-.11-3.64-.36-5.43a8.22,8.22,0,0,0-6.85-7.48,37.51,37.51,0,0,0-4.22-.7,5.23,5.23,0,0,1-3.91-8.36C86.43,72.22,86.77,71.75,87.36,70.9Zm-14,78.79a13.27,13.27,0,0,0,11-6,1.56,1.56,0,0,0,.09-2.09,11.28,11.28,0,0,1-2-4.58c-.19-.93-.59-1.24-1.59-.92a24.66,24.66,0,0,1-14.75.07c-.93-.28-1.42-.16-1.62.93a10.37,10.37,0,0,1-2,4.4,1.63,1.63,0,0,0,0,2.22A13.34,13.34,0,0,0,73.35,149.69Zm23.92-42.26c0,1.16-.06,2.33,0,3.48,0,.7-.54,1.83.95,1.83,1.23,0,2.76.15,2.9-1.49a45.08,45.08,0,0,0,0-7.53c-.13-1.54-1.61-1.58-2.89-1.58-1.52,0-.89,1.12-.95,1.81C97.21,105.1,97.27,106.27,97.27,107.43Zm-48,0a30,30,0,0,0,0-3.29c-.08-.73.69-2-1-2-1.34,0-2.74.2-2.88,1.66a41,41,0,0,0,0,7.35c.13,1.56,1.56,1.62,2.87,1.6,1.48,0,.92-1.12,1-1.82C49.33,109.77,49.27,108.6,49.27,107.44Z"/><path class="cls-1" d="M95.47,38.33c0,1.81,0,3.63,0,5.45-.08,2.43-1.18,3.56-3.62,3.63-2.6.08-5.2.07-7.8,0-1.18,0-1.61.34-1.58,1.55.08,2.59.06,5.19,0,7.79,0,2.29-1.15,3.52-3.45,3.57q-5.65.14-11.31,0c-2.33,0-3.46-1.34-3.52-3.79s-.07-5.06,0-7.59c0-1.21-.4-1.57-1.57-1.53-2.47.06-5,0-7.42,0-2.76-.05-3.93-1.21-4-3.93,0-3.5,0-7,0-10.51,0-2.64,1.17-3.76,3.83-3.79,2.35,0,4.69-.11,7,0,1.58.08,2.21-.34,2.1-2-.14-2.33-.06-4.67,0-7,0-2.77,1.16-3.91,3.91-3.95,3.51-.05,7-.05,10.54,0,2.81,0,3.82,1.1,3.84,3.94,0,2.47.07,4.94,0,7.4,0,1.31.44,1.67,1.69,1.63,2.53-.08,5.07-.05,7.61,0s3.63,1.08,3.7,3.68C95.51,34.69,95.47,36.51,95.47,38.33ZM63.14,35.48H61.58c-4.12,0-4.09,0-3.9,4.23,0,1,.35,1.34,1.36,1.32,2.67-.05,5.34-.06,8,0a3.32,3.32,0,0,1,3.58,3.52c.07,1.82,0,3.64,0,5.46,0,4.12,0,4.07,4.2,4,1.16,0,1.4-.47,1.37-1.51,0-2.59,0-5.19,0-7.79,0-2.34,1.24-3.57,3.61-3.63,1.76-.05,3.52,0,5.27,0,4.26,0,4.21,0,4.05-4.27,0-1-.4-1.31-1.37-1.29-2.54.06-5.08,0-7.61,0-2.79,0-3.93-1.13-4-3.86,0-1.69,0-3.38,0-5.06,0-4.12,0-4.08-4.12-4-1.08,0-1.48.31-1.45,1.43.07,2.59.06,5.19,0,7.79s-1.3,3.65-3.77,3.69C65.61,35.5,64.37,35.48,63.14,35.48Z"/><path class="cls-1" d="M102.3,62.37c0-1.82,0-3.64,0-5.45,0-2.62,1.17-3.75,3.84-3.79,2.48,0,5-.09,7.42,0,1.43.07,1.75-.45,1.7-1.77-.1-2.53,0-5.07,0-7.6,0-2.26,1.2-3.49,3.48-3.53,3.7,0,7.42,0,11.12,0,2.36,0,3.62,1.28,3.68,3.61s.11,4.68,0,7c-.09,1.7.3,2.44,2.19,2.29,2.27-.18,4.56-.07,6.83,0,2.74,0,3.92,1.23,3.93,3.95,0,3.51,0,7,0,10.52,0,2.66-1.14,3.75-3.81,3.77-2.48,0-4.95.09-7.42,0-1.42-.07-1.76.45-1.71,1.77.1,2.4,0,4.8,0,7.21,0,2.81-1.11,3.94-3.85,4q-5.37,0-10.74,0c-2.7,0-3.69-1.08-3.7-3.84,0-2.53-.07-5.07,0-7.6,0-1.23-.38-1.54-1.55-1.51-2.67.08-5.34.05-8,0-2.25,0-3.33-1.11-3.39-3.35C102.27,66.14,102.3,64.25,102.3,62.37Zm19.19,10v1.75c0,3.94,0,3.87,4,3.88,1.35,0,1.63-.49,1.59-1.7q-.1-3.78,0-7.58c.07-2.53,1.25-3.61,3.8-3.63,1.75,0,3.51,0,5.26,0,4.06,0,4,0,4-4,0-1.36-.54-1.61-1.73-1.58-2.54.07-5.07.08-7.61,0s-3.58-1.23-3.68-3.62c-.07-1.75,0-3.5,0-5.25,0-4.3,0-4.26-4.29-4.06-1,0-1.35.35-1.33,1.36.06,2.6,0,5.19,0,7.78s-1.13,3.71-3.63,3.8c-1.75.06-3.51,0-5.27,0-4.22,0-4.17,0-4,4.28,0,1.06.39,1.3,1.37,1.28,2.72,0,5.45,0,8.18,0,2.2,0,3.32,1.18,3.37,3.38C121.51,69.81,121.49,71.11,121.49,72.41Z"/></g></svg>